<svg width="41" height="44" viewBox="0 0 41 44" fill="none" xmlns="http://www.w3.org/2000/svg">
<path fill-rule="evenodd" clip-rule="evenodd" d="M40.6672 1.10141C40.6672 0.508341 40.1546 0 39.5565 0C39.3857 0 39.3002 0 39.1293 0.0847233L34.5158 1.94864L31.5256 1.18613L5.38222 11.6071V11.8613C5.38222 11.8613 6.74922 11.7766 8.20161 12.4544C7.94533 12.6238 3.41721 14.403 3.41721 14.403C3.41721 14.403 3.41721 14.4877 3.50265 14.5724C5.21139 14.3183 8.11617 14.4877 10.4229 16.0127C9.82489 16.2669 6.49289 17.6225 6.49289 17.6225C6.49289 17.6225 6.49289 17.7072 6.57833 17.7919C7.94533 17.7919 9.91033 18.385 10.8501 19.1475C11.021 20.2489 11.1919 25.9254 10.5938 29.5685L10.7647 29.7379L24.4344 16.1822C26.0995 14.514 27.599 13.0065 28.9461 11.6522C34.3038 6.26613 37.2513 3.30304 38.6167 2.28754C38.7022 2.20281 38.7876 2.20281 38.8731 2.20281C39.1293 2.20281 39.2148 2.37226 39.3002 2.62643C39.3857 3.13477 39.3002 4.82924 39.3002 4.82924L40.5818 1.60974C40.6672 1.4403 40.6672 1.27085 40.6672 1.10141ZM34.5158 1.94864L31.7819 5.08341L28.7062 4.23618L34.5158 1.94864Z" fill="white"/>
<path fill-rule="evenodd" clip-rule="evenodd" d="M18.1974 37.3628C18.2602 37.4875 18.2305 37.6582 18.2105 37.7734C18.2033 37.8146 18.1974 37.8488 18.1974 37.8711L16.4886 42.192C16.2323 42.7003 15.6343 43.0393 15.1216 43.124H10.8499C10.3373 43.124 10.081 42.7003 10.3373 42.1073C10.3799 41.9803 10.444 41.8322 10.508 41.684C10.5721 41.5356 10.6363 41.3872 10.679 41.2601C10.7644 41.006 10.8498 40.7732 10.9352 40.5404L10.9353 40.5398C11.0207 40.307 11.1063 40.0738 11.1916 39.8198L11.1927 39.8171C11.3632 39.3943 11.5337 38.9714 11.7043 38.4642C11.747 38.337 11.7897 38.2311 11.8324 38.1251C11.8751 38.0193 11.9178 37.9134 11.9605 37.7864C12.3023 37.1086 12.7295 36.8544 13.2421 36.8544H17.5993C17.8554 37.0238 18.0266 37.1935 18.1974 37.3628ZM16.3178 37.9558V37.8711C16.3178 37.7017 16.2323 37.7017 16.1469 37.7017H14.2673C14.0964 37.7017 13.9255 37.7864 13.8401 38.0406L12.1314 42.3615V42.4462C12.1314 42.6156 12.2169 42.6156 12.3023 42.6156H14.1819C14.3528 42.6156 14.5236 42.5309 14.609 42.2767L16.3178 37.9558Z" fill="white"/>
<path d="M22.2992 40.8363L22.8972 42.2766C22.9826 42.4461 23.0681 42.5308 23.3244 42.5308H23.837C23.9225 42.5308 23.9225 42.5308 24.0079 42.6155C24.2642 42.8697 24.5205 43.0391 24.7768 43.1239V43.2085H21.7011C21.5302 43.2085 21.3593 43.1239 21.274 42.9544L20.4196 40.9211C20.3341 40.7516 20.2487 40.6669 20.0778 40.6669C19.907 40.6669 19.8215 40.7516 19.7361 41.0058L18.9672 42.8697C18.9672 43.1239 18.7963 43.2085 18.54 43.2085H17.2585C17.0876 43.2085 17.0876 43.1239 17.0876 43.0391V42.9544L18.7963 38.6335C18.8817 38.4641 19.0526 38.2946 19.2235 38.2946H20.505C20.6759 38.2946 20.6759 38.3793 20.6759 38.4641V38.5488L20.2487 39.8196V39.9044C20.2487 40.0738 20.3341 40.0738 20.4196 40.0738H22.2992C22.47 40.0738 22.6409 39.9891 22.7263 39.7349L23.4952 37.871V37.7862C23.4952 37.6168 23.4098 37.6168 23.3244 37.6168H19.3943C19.358 37.6168 19.3372 37.6168 19.3186 37.6103C19.2935 37.6015 19.2726 37.5808 19.2235 37.5321C19.0526 37.3626 18.7963 37.1085 18.54 37.0238V36.939H24.7768C24.9477 36.939 25.1185 37.0238 25.204 37.1932C25.3748 37.4474 25.3748 37.6168 25.2894 37.871L24.6059 39.8196C24.4351 40.1585 24.1787 40.4127 23.837 40.5821C23.6661 40.6669 23.4098 40.7516 23.239 40.7516H22.47C22.3846 40.7516 22.2992 40.7516 22.2992 40.8363Z" fill="white"/>
<path d="M40.3681 37.2356C40.4749 37.172 40.5817 37.1085 40.6671 37.0238C40.6671 37.0238 40.3254 37.0238 39.9837 36.939H34.9429C34.4303 36.939 33.9177 37.2779 33.6614 37.871L32.8925 39.7349C32.7216 40.1585 32.9779 40.6669 33.4905 40.6669H36.6517C36.7371 40.6669 36.8225 40.6669 36.8225 40.8363V40.9211L36.3099 42.1919C36.2245 42.4461 36.0536 42.5308 35.8827 42.5308H32.209C32.1235 42.5308 32.0381 42.5308 31.9527 42.6155L31.8673 42.7002L31.8663 42.7008C31.6103 42.8701 31.3544 43.0392 31.1838 43.1239V43.2085H36.9079C37.4205 43.2085 38.0186 42.7849 38.1895 42.2766L38.7021 41.0058C38.873 40.5821 38.5312 40.0738 38.104 40.0738H34.9429C34.8575 40.0738 34.772 40.0738 34.772 39.9044V39.8196L35.541 37.9557C35.6264 37.7016 35.7973 37.6168 35.9682 37.6168H39.7273C39.8128 37.6168 39.8982 37.6168 39.9837 37.5321L40.0691 37.4474C40.1545 37.3626 40.2613 37.2991 40.3681 37.2356Z" fill="white"/>
<path d="M32.9782 37.0241H29.9025V37.1089C30.3297 37.2783 30.7569 37.5325 31.0132 38.0408L29.3045 42.277C29.2191 42.4464 29.0482 42.6159 28.8773 42.6159H26.9978C26.8269 42.6159 26.8269 42.5312 26.8269 42.4464V42.3617L28.7919 37.363V37.2783C28.7919 37.1089 28.7065 37.1089 28.621 37.1089H25.5453V37.1936C25.9725 37.363 26.4851 37.6172 26.656 38.2103L24.9473 42.4464C24.7764 42.7006 25.0327 43.2089 25.5453 43.2089H29.9025C30.1589 43.2089 30.5006 43.1242 30.6715 42.9548C30.8424 42.87 31.0986 42.5312 31.1841 42.277L33.1491 37.2783V37.1936C33.2345 37.0241 33.1491 37.0241 32.9782 37.0241Z" fill="white"/>
<path fill-rule="evenodd" clip-rule="evenodd" d="M7.86008 37.0241H11.0212C11.1066 37.0241 11.1921 37.0241 11.1921 37.1089V37.1936L8.97075 42.7853C8.8853 43.0395 8.71447 43.1242 8.54358 43.1242H6.15136V43.0395C6.57853 42.87 7.09119 42.4464 7.34747 42.0228L7.77464 40.9214V40.8367C7.77464 40.752 7.77464 40.6672 7.6038 40.6672H5.21158C5.04071 40.6672 4.7844 40.752 4.61353 40.9214L2.22133 42.9548C2.05046 43.1242 1.79415 43.2089 1.62328 43.2089H0V43.1242C0.0403342 43.1042 0.0854288 43.0842 0.133036 43.0631C0.287113 42.9948 0.467511 42.9148 0.598048 42.7853L0.854359 42.5312L1.28154 42.1922L7.26203 37.2783C7.43291 37.1089 7.68919 37.0241 7.86008 37.0241ZM8.11642 39.7353L8.88531 37.8713C8.88531 37.8713 8.97075 37.7867 8.88531 37.7019C8.88531 37.6172 8.79986 37.5325 8.71447 37.5325C8.54358 37.5325 8.37269 37.6172 8.20181 37.7867L5.80964 39.82C5.76049 39.8688 5.73961 39.8895 5.73074 39.9144C5.72419 39.9328 5.72419 39.9535 5.72419 39.9894C5.72419 40.0742 5.80964 40.0742 5.89508 40.0742H7.68919C7.86008 40.0742 8.03097 39.9047 8.11642 39.7353Z" fill="white"/>
<path d="M23.4101 18.0457L13.2432 28.1279C13.2432 28.1279 12.9869 29.6529 12.7306 30.7543C13.4995 31.5168 16.8315 34.3974 20.1635 35.9224C20.4198 35.7529 36.9943 22.4514 36.9943 22.4514L35.0293 19.5708L29.9032 20.5875L33.1497 21.943L22.1285 27.7042L20.5907 26.6028L23.4101 18.0457Z" fill="white"/>
</svg>
