<svg width="24" height="24" viewBox="0 0 24 24" fill="none" xmlns="http://www.w3.org/2000/svg">
<path fill-rule="evenodd" clip-rule="evenodd" d="M24 12C24 18.6274 18.6274 24 12 24C5.37258 24 0 18.6274 0 12C0 5.37258 5.37258 0 12 0C18.6274 0 24 5.37258 24 12ZM11.9999 21.5215C17.2586 21.5215 21.5215 17.2586 21.5215 12C21.5215 6.74136 17.2586 2.47841 11.9999 2.47841C6.74132 2.47841 2.47836 6.74136 2.47836 12C2.47836 17.2586 6.74132 21.5215 11.9999 21.5215ZM11.9999 22.5882C17.8477 22.5882 22.5882 17.8477 22.5882 12C22.5882 6.15226 17.8477 1.41174 11.9999 1.41174C6.15221 1.41174 1.4117 6.15226 1.4117 12C1.4117 17.8477 6.15221 22.5882 11.9999 22.5882ZM14.9072 15.184C15.3872 14.696 15.6272 14.12 15.6272 13.456C15.6272 12.872 15.4712 12.412 15.1592 12.076C14.8552 11.732 14.4912 11.484 14.0672 11.332C13.6512 11.172 13.1232 11.024 12.4832 10.888C11.9152 10.768 11.5032 10.652 11.2472 10.54C10.9912 10.428 10.8632 10.26 10.8632 10.036C10.8632 9.812 10.9712 9.632 11.1872 9.496C11.4032 9.352 11.7472 9.28 12.2192 9.28C12.9712 9.28 13.7472 9.496 14.5472 9.928L15.2792 8.164C14.9512 7.972 14.5752 7.816 14.1512 7.696C13.7352 7.576 13.2992 7.496 12.8432 7.456V6.16H11.4032V7.48C10.4672 7.592 9.75123 7.896 9.25523 8.392C8.75923 8.88 8.51123 9.468 8.51123 10.156C8.51123 10.74 8.66323 11.204 8.96723 11.548C9.27123 11.892 9.63523 12.144 10.0592 12.304C10.4832 12.456 11.0112 12.6 11.6432 12.736C12.2192 12.864 12.6352 12.988 12.8912 13.108C13.1552 13.22 13.2872 13.396 13.2872 13.636C13.2872 14.092 12.8312 14.32 11.9192 14.32C11.4392 14.32 10.9512 14.244 10.4552 14.092C9.95923 13.94 9.52323 13.74 9.14723 13.492L8.36723 15.244C8.71923 15.484 9.16323 15.688 9.69923 15.856C10.2352 16.016 10.8032 16.116 11.4032 16.156V17.44H12.8432V16.108C13.7472 15.972 14.4352 15.664 14.9072 15.184Z" fill="#EAAC52"/>
</svg>
