<svg xmlns="http://www.w3.org/2000/svg" viewBox="0 0 20 20">
<g>
	<path class="st0" d="M16.4,0H3.6C1.6,0,0,1.6,0,3.6v12.8c0,2,1.6,3.6,3.6,3.6h12.8c2,0,3.6-1.6,3.6-3.6V3.6C20,1.6,18.4,0,16.4,0z M18.8,16.4c0,1.3-1.1,2.4-2.4,2.4H3.6c-1.3,0-2.4-1.1-2.4-2.4V3.6c0-1.3,1.1-2.4,2.4-2.4h12.8c1.3,0,2.4,1.1,2.4,2.4V16.4z"/>
	<path d="M16.9,4.4H8C7.7,3.7,7,3.1,6.2,3.1S4.7,3.7,4.5,4.4H3.1C2.8,4.4,2.5,4.7,2.5,5c0,0.3,0.3,0.6,0.6,0.6h1.4c0.2,0.7,0.9,1.3,1.7,1.3S7.7,6.3,8,5.6h8.9c0.3,0,0.6-0.3,0.6-0.6C17.5,4.7,17.2,4.4,16.9,4.4z M6.2,5.6C5.9,5.6,5.6,5.3,5.6,5c0-0.4,0.3-0.7,0.7-0.7S6.9,4.6,6.9,5C6.9,5.3,6.6,5.6,6.2,5.6z"/>
	<path d="M16.9,9.4h-1.4c-0.2-0.7-0.9-1.3-1.7-1.3c-0.8,0-1.5,0.5-1.7,1.3H3.1c-0.3,0-0.6,0.3-0.6,0.6c0,0.3,0.3,0.6,0.6,0.6H12c0.2,0.7,0.9,1.3,1.7,1.3c0.8,0,1.5-0.5,1.7-1.3h1.4c0.3,0,0.6-0.3,0.6-0.6C17.5,9.7,17.2,9.4,16.9,9.4z M13.8,10.7c-0.4,0-0.7-0.3-0.7-0.7c0-0.4,0.3-0.7,0.7-0.7c0.4,0,0.7,0.3,0.7,0.7C14.4,10.4,14.1,10.7,13.8,10.7z"/>
	<path d="M16.9,14.4h-6.4c-0.2-0.7-0.9-1.3-1.7-1.3S7.2,13.7,7,14.4H3.1c-0.3,0-0.6,0.3-0.6,0.6c0,0.3,0.3,0.6,0.6,0.6H7c0.2,0.7,0.9,1.3,1.7,1.3s1.5-0.5,1.7-1.3h6.4c0.3,0,0.6-0.3,0.6-0.6C17.5,14.7,17.2,14.4,16.9,14.4z M8.7,15.7c-0.4,0-0.7-0.3-0.7-0.7c0-0.4,0.3-0.7,0.7-0.7c0.4,0,0.7,0.3,0.7,0.7C9.4,15.4,9.1,15.7,8.7,15.7z"/>
</g>
</svg>
