<svg xmlns="http://www.w3.org/2000/svg" viewBox="0 0 56 56">
<path d="M39.1,49.8H16.9c-1.6,0-3.1-0.6-4.2-1.8c-1.1-1.1-1.8-2.6-1.8-4.2V12.2c0-1.6,0.6-3.1,1.8-4.2c1.1-1.1,2.6-1.8,4.2-1.8h22.2c1.6,0,3.1,0.6,4.2,1.8c1.1,1.1,1.8,2.6,1.8,4.2v31.5c0,1.6-0.6,3.1-1.8,4.2C42.2,49.1,40.7,49.8,39.1,49.8z M16.9,7.7c-1.2,0-2.3,0.5-3.2,1.3c-0.9,0.9-1.3,2-1.3,3.2v31.5c0,1.2,0.5,2.3,1.3,3.2s2,1.3,3.2,1.3h22.2c1.2,0,2.3-0.5,3.2-1.3c0.9-0.9,1.3-2,1.3-3.2V12.2c0-1.2-0.5-2.3-1.3-3.2c-0.8-0.9-2-1.3-3.2-1.3H16.9z"/>
<path d="M36.8,33.4H19.2c-0.7,0-1.3-0.6-1.3-1.3V14.6c0-0.7,0.6-1.3,1.3-1.3h17.5c0.7,0,1.3,0.6,1.3,1.3v17.5C38.1,32.8,37.5,33.4,36.8,33.4z M19.4,31.9h17.2V14.7H19.4V31.9z M36.8,14.7L36.8,14.7L36.8,14.7z"/>
<path d="M37.3,24.1H18.7c-0.4,0-0.8-0.3-0.8-0.8s0.3-0.8,0.8-0.8h18.7c0.4,0,0.8,0.3,0.8,0.8S37.8,24.1,37.3,24.1z"/>
<path d="M28,43.2c-0.1,0-0.3,0-0.4-0.1c-0.4-0.2-0.7-0.6-0.7-1.1c0-0.3,0.1-0.6,0.3-0.8c0.2-0.2,0.5-0.3,0.8-0.3c0.5,0,0.9,0.3,1.1,0.7c0.2,0.4,0.1,0.9-0.2,1.3C28.6,43.1,28.3,43.2,28,43.2z M28,41.4c-0.2,0-0.3,0.1-0.4,0.2c-0.2,0.2-0.2,0.4-0.1,0.6c0.1,0.2,0.3,0.4,0.5,0.4h0c0.2,0,0.3-0.1,0.4-0.2c0.1-0.1,0.2-0.3,0.2-0.4c0-0.2-0.1-0.4-0.4-0.5C28.1,41.4,28.1,41.4,28,41.4l0,0.3L28,41.4z M28,42.6L28,42.6L28,42.6z"/>
</svg>
