<svg xmlns="http://www.w3.org/2000/svg" viewBox="0 0 56 56">
<path d="M28,49.7c-5.6,0-11.1-2.1-15.4-6.4C8.5,39.3,6.2,33.8,6.2,28c0-5.8,2.3-11.3,6.4-15.4S22.2,6.2,28,6.2c5.8,0,11.3,2.3,15.4,6.4c8.5,8.5,8.5,22.3,0,30.8C39.1,47.6,33.6,49.7,28,49.7z M28,7.7c-5.4,0-10.5,2.1-14.3,5.9C9.8,17.5,7.7,22.6,7.7,28s2.1,10.5,5.9,14.3c7.9,7.9,20.8,7.9,28.7,0c7.9-7.9,7.9-20.8,0-28.7l0,0C38.5,9.8,33.4,7.7,28,7.7z"/>
<path d="M23.7,38h-5.6c-1,0-1.8-0.8-1.8-1.8v-5.6c0-1,0.8-1.8,1.8-1.8h5.6c1,0,1.8,0.8,1.8,1.8v5.6C25.5,37.2,24.7,38,23.7,38z M18.1,30.3c-0.1,0-0.3,0.1-0.3,0.3v5.6c0,0.1,0.1,0.3,0.3,0.3h5.6c0.1,0,0.3-0.1,0.3-0.3v-5.6c0-0.1-0.1-0.3-0.3-0.3H18.1z"/>
<path d="M34.9,38.4c-2.8,0-5-2.3-5-5c0-2.8,2.3-5,5-5c2.8,0,5,2.3,5,5C40,36.2,37.7,38.4,34.9,38.4z M34.9,29.9c-1.9,0-3.5,1.6-3.5,3.5c0,1.9,1.6,3.5,3.5,3.5c1.9,0,3.5-1.6,3.5-3.5C38.5,31.5,36.9,29.9,34.9,29.9z"/>
<path d="M32.4,24.7C32.4,24.7,32.4,24.7,32.4,24.7H24c0,0,0,0,0,0c-0.5,0-0.9-0.3-1.2-0.7c-0.2-0.4-0.2-0.9,0-1.3l4.2-7.2c0,0,0,0,0,0c0.2-0.4,0.7-0.7,1.2-0.7c0.5,0,0.9,0.3,1.2,0.7l4.2,7.2c0.2,0.4,0.2,0.9,0,1.3C33.3,24.5,32.8,24.7,32.4,24.7z M32.4,23.2L32.4,23.2L32.4,23.2L32.4,23.2z M24.3,23.2h7.8l-3.9-6.7L24.3,23.2z M24,23.2C24,23.2,24,23.2,24,23.2L24,23.2C24,23.2,24,23.2,24,23.2z"/>
</svg>
