<svg  xmlns="http://www.w3.org/2000/svg" viewBox="0 0 56 56">
<path d="M35,45.1C35,45.1,35,45.1,35,45.1H21c-5.5,0-10.1-4.5-10.1-10.1V21c0-5.5,4.5-10.1,10.1-10.1h14c5.5,0,10.1,4.5,10.1,10.1v14C45.1,40.5,40.5,45.1,35,45.1z M35,12.4H21c-4.7,0-8.6,3.9-8.6,8.6v14c0,4.7,3.9,8.6,8.6,8.6h14c4.7,0,8.6-3.9,8.6-8.6V21C43.6,16.3,39.7,12.4,35,12.4z"/>
<path d="M31.2,12.4c-0.4,0-0.8-0.3-0.8-0.8V7c0-0.4,0.3-0.8,0.8-0.8S32,6.6,32,7v4.7C32,12.1,31.6,12.4,31.2,12.4z"/>
<path d="M37.7,12.8c-0.4,0-0.8-0.3-0.8-0.8V7c0-0.4,0.3-0.8,0.8-0.8s0.8,0.3,0.8,0.8v5.1C38.4,12.5,38.1,12.8,37.7,12.8z"/>
<path d="M18.3,12.8c-0.4,0-0.8-0.3-0.8-0.8V7c0-0.4,0.3-0.8,0.8-0.8s0.8,0.3,0.8,0.8v5.1C19.1,12.5,18.7,12.8,18.3,12.8z"/>
<path d="M24.8,12.4c-0.4,0-0.8-0.3-0.8-0.8V7c0-0.4,0.3-0.8,0.8-0.8s0.8,0.3,0.8,0.8v4.7C25.5,12.1,25.2,12.4,24.8,12.4z"/>
<path d="M31.2,49.8c-0.4,0-0.8-0.3-0.8-0.8v-4.7c0-0.4,0.3-0.8,0.8-0.8s0.8,0.3,0.8,0.8V49C32,49.4,31.6,49.8,31.2,49.8z"/>
<path d="M37.7,49.8c-0.4,0-0.8-0.3-0.8-0.8v-5.1c0-0.4,0.3-0.8,0.8-0.8s0.8,0.3,0.8,0.8V49C38.4,49.4,38.1,49.8,37.7,49.8z"/>
<path d="M18.3,49.8c-0.4,0-0.8-0.3-0.8-0.8v-5.1c0-0.4,0.3-0.8,0.8-0.8s0.8,0.3,0.8,0.8V49C19.1,49.4,18.7,49.8,18.3,49.8z"/>
<path d="M24.8,49.8c-0.4,0-0.8-0.3-0.8-0.8v-4.7c0-0.4,0.3-0.8,0.8-0.8s0.8,0.3,0.8,0.8V49C25.5,49.4,25.2,49.8,24.8,49.8z"/>
<path d="M49,32h-4.7c-0.4,0-0.8-0.3-0.8-0.8s0.3-0.8,0.8-0.8H49c0.4,0,0.8,0.3,0.8,0.8S49.4,32,49,32z"/>
<path d="M49,38.4h-5.1c-0.4,0-0.8-0.3-0.8-0.8s0.3-0.8,0.8-0.8H49c0.4,0,0.8,0.3,0.8,0.8S49.4,38.4,49,38.4z"/>
<path d="M49,19.1h-5.1c-0.4,0-0.8-0.3-0.8-0.8s0.3-0.8,0.8-0.8H49c0.4,0,0.8,0.3,0.8,0.8S49.4,19.1,49,19.1z"/>
<path d="M49,25.5h-4.7c-0.4,0-0.8-0.3-0.8-0.8s0.3-0.8,0.8-0.8H49c0.4,0,0.8,0.3,0.8,0.8S49.4,25.5,49,25.5z"/>
<path d="M11.7,32H7c-0.4,0-0.8-0.3-0.8-0.8s0.3-0.8,0.8-0.8h4.7c0.4,0,0.8,0.3,0.8,0.8S12.1,32,11.7,32z"/>
<path d="M12.1,38.4H7c-0.4,0-0.8-0.3-0.8-0.8s0.3-0.8,0.8-0.8h5.1c0.4,0,0.8,0.3,0.8,0.8S12.5,38.4,12.1,38.4z"/>
<path d="M12.1,19.1H7c-0.4,0-0.8-0.3-0.8-0.8s0.3-0.8,0.8-0.8h5.1c0.4,0,0.8,0.3,0.8,0.8S12.5,19.1,12.1,19.1z"/>
<path d="M11.7,25.5H7c-0.4,0-0.8-0.3-0.8-0.8S6.6,24,7,24h4.7c0.4,0,0.8,0.3,0.8,0.8S12.1,25.5,11.7,25.5z"/>
<path d="M32.7,38.1C32.7,38.1,32.7,38.1,32.7,38.1h-9.3c-3,0-5.4-2.4-5.4-5.4v-9.3c0-3,2.4-5.4,5.4-5.4h9.3c3,0,5.4,2.4,5.4,5.4v9.3C38.1,35.6,35.6,38.1,32.7,38.1z M32.7,19.4h-9.3c-2.2,0-3.9,1.8-3.9,3.9v9.3c0,2.2,1.8,3.9,3.9,3.9h9.3c2.2,0,3.9-1.8,3.9-3.9v-9.3C36.6,21.2,34.8,19.4,32.7,19.4z"/>
</svg>
