<svg xmlns="http://www.w3.org/2000/svg" viewBox="0 0 56 56">
<path d="M22.2,34.6c-3.6,0-6.6-3-6.6-6.6c0-3.6,3-6.6,6.6-6.6c3.6,0,6.6,3,6.6,6.6C28.8,31.6,25.8,34.6,22.2,34.6z M22.2,22.9c-2.8,0-5.1,2.3-5.1,5.1c0,2.8,2.3,5.1,5.1,5.1c2.8,0,5.1-2.3,5.1-5.1C27.3,25.2,25,22.9,22.2,22.9z"/>
<path d="M43.6,40.4H10.5c-0.4,0-0.8-0.3-0.8-0.8V16.3c0-0.4,0.3-0.8,0.8-0.8h33.1c2.6,0,4.6,2.1,4.6,4.6v15.6C48.2,38.3,46.1,40.4,43.6,40.4z M11.3,38.9h32.3c1.7,0,3.1-1.4,3.1-3.1V20.2c0-1.7-1.4-3.1-3.1-3.1H11.3V38.9z"/>
<path d="M39.7,46.3H20.2c-1.5,0-2.7-1.2-2.7-2.7v-3.9c0-0.4,0.3-0.8,0.8-0.8h23.3c0.4,0,0.8,0.3,0.8,0.8v3.9C42.4,45,41.2,46.3,39.7,46.3z M19,40.4v3.1c0,0.7,0.5,1.2,1.2,1.2h19.4c0.7,0,1.2-0.5,1.2-1.2v-3.1H19z"/>
<path d="M10.5,46.3c-0.4,0-0.8-0.3-0.8-0.8V12.4c0-0.7-0.5-1.2-1.2-1.2H6.6c-0.4,0-0.8-0.3-0.8-0.8s0.3-0.8,0.8-0.8h1.9c1.5,0,2.7,1.2,2.7,2.7v33.1C11.3,45.9,10.9,46.3,10.5,46.3z"/>
<path d="M41.6,31.7h-7.8c-0.4,0-0.8-0.3-0.8-0.8s0.3-0.8,0.8-0.8h7.8c0.4,0,0.8,0.3,0.8,0.8S42,31.7,41.6,31.7z"/>
<path d="M41.6,25.8h-7.8c-0.4,0-0.8-0.3-0.8-0.8s0.3-0.8,0.8-0.8h7.8c0.4,0,0.8,0.3,0.8,0.8S42,25.8,41.6,25.8z"/>
</svg>
