<svg width="56" height="56" viewBox="0 0 56 56" fill="none" xmlns="http://www.w3.org/2000/svg">
<path d="M42.8555 13.1446C51.0598 21.3491 51.0598 34.651 42.8554 42.8554C34.6509 51.0598 21.349 51.0598 13.1446 42.8554C4.94014 34.651 4.94009 21.3491 13.1444 13.1446C17.0844 9.20466 22.428 6.99121 28 6.99121C33.5719 6.99121 38.9156 9.20466 42.8555 13.1446" stroke="white" stroke-width="1.5" stroke-linecap="round" stroke-linejoin="round"/>
<rect x="17.0918" y="29.5986" width="7.64485" height="7.64485" rx="1" stroke="white" stroke-width="1.5" stroke-linecap="round" stroke-linejoin="round"/>
<ellipse cx="34.9494" cy="33.4245" rx="4.27411" ry="4.27411" stroke="white" stroke-width="1.5" stroke-linecap="round" stroke-linejoin="round"/>
<path fill-rule="evenodd" clip-rule="evenodd" d="M27.6803 15.8806L23.4996 23.117C23.3952 23.2977 23.3953 23.5204 23.4999 23.7011C23.6044 23.8817 23.7974 23.9928 24.0061 23.9923H32.3629C32.5716 23.9928 32.7647 23.8817 32.8692 23.7011C32.9737 23.5204 32.9738 23.2977 32.8695 23.117L28.6911 15.8806C28.5868 15.7001 28.3942 15.5889 28.1857 15.5889C27.9772 15.5889 27.7846 15.7001 27.6803 15.8806Z" stroke="white" stroke-width="1.5" stroke-linecap="round" stroke-linejoin="round"/>
</svg>
