<svg width="91" height="29" viewBox="0 0 91 29" fill="none" xmlns="http://www.w3.org/2000/svg">
<path d="M87.7889 15.8906V24.5034L80.3721 15.8906H77.876V28.2728H80.3542V19.663L87.768 28.2728H90.2641V15.8906H87.7889Z" fill="white"/>
<path d="M40.6824 15.8907H30.7725V18.3689H40.5069C40.5534 18.3689 40.5981 18.3874 40.631 18.4203C40.6639 18.4532 40.6824 18.4979 40.6824 18.5444V25.6191C40.6824 25.6656 40.6639 25.7103 40.631 25.7432C40.5981 25.7761 40.5534 25.7946 40.5069 25.7946H33.2626V20.8441H30.7844V28.2639H40.6943C41.3515 28.2639 41.9819 28.0028 42.4466 27.5381C42.9114 27.0733 43.1725 26.443 43.1725 25.7857V18.3481C43.167 17.6923 42.9018 17.0655 42.4351 16.6049C41.9684 16.1443 41.3381 15.8875 40.6824 15.8907Z" fill="white"/>
<path d="M19.0165 25.7972H24.6691L25.7461 28.2635H28.4445L23.0894 15.8843H20.6082L15.2441 28.2635H17.9425L19.0165 25.7972ZM21.8458 19.252L23.6011 23.31H20.0875L21.8458 19.252Z" fill="white"/>
<path d="M72.0809 15.8965H64.6432C64.3181 15.8961 63.996 15.9599 63.6955 16.0841C63.395 16.2084 63.122 16.3907 62.8921 16.6206C62.6622 16.8505 62.4798 17.1236 62.3556 17.424C62.2313 17.7245 62.1676 18.0466 62.168 18.3717V25.7915C62.168 26.1172 62.2323 26.4397 62.3573 26.7404C62.4823 27.0411 62.6654 27.3142 62.8963 27.5439C63.1271 27.7737 63.4011 27.9555 63.7024 28.0791C64.0037 28.2026 64.3265 28.2654 64.6521 28.2638H72.0898C72.7463 28.2638 73.3759 28.003 73.8401 27.5388C74.3042 27.0746 74.565 26.445 74.565 25.7886V18.3717C74.565 18.0459 74.5007 17.7233 74.3758 17.4224C74.2508 17.1216 74.0677 16.8483 73.8369 16.6183C73.6061 16.3884 73.3322 16.2062 73.0308 16.0823C72.7295 15.9585 72.4067 15.8953 72.0809 15.8965ZM72.0809 25.616C72.0809 25.6626 72.0624 25.7072 72.0294 25.7401C71.9965 25.773 71.9519 25.7915 71.9053 25.7915H64.8277C64.8045 25.7919 64.7815 25.7877 64.76 25.779C64.7385 25.7703 64.719 25.7574 64.7027 25.741C64.6863 25.7246 64.6734 25.7051 64.6647 25.6837C64.656 25.6622 64.6517 25.6392 64.6521 25.616V18.5473C64.6517 18.5241 64.656 18.5011 64.6647 18.4796C64.6734 18.4582 64.6863 18.4386 64.7027 18.4223C64.719 18.4059 64.7385 18.393 64.76 18.3843C64.7815 18.3756 64.8045 18.3713 64.8277 18.3717H71.9053C71.9519 18.3717 71.9965 18.3902 72.0294 18.4232C72.0624 18.4561 72.0809 18.5007 72.0809 18.5473V25.616Z" fill="white"/>
<path d="M58.8537 15.8906H46.4805V18.3659H58.8537V15.8906Z" fill="white"/>
<path d="M46.4805 20.8438V28.2725H58.8537V25.7942H48.9587V23.319H58.8537V20.8438H46.4805Z" fill="white"/>
<path d="M3.30923 23.3193H7.87297L10.732 28.2638H13.5881L10.732 23.3163C11.3882 23.3155 12.0174 23.0545 12.4814 22.5904C12.9454 22.1264 13.2065 21.4973 13.2072 20.841V18.3688C13.2065 17.7128 12.9453 17.084 12.4812 16.6204C12.0171 16.1569 11.388 15.8965 10.732 15.8965H0.833984V18.3688H10.5565C10.5795 18.3688 10.6023 18.3733 10.6236 18.3821C10.6449 18.3909 10.6643 18.4039 10.6806 18.4202C10.6969 18.4365 10.7098 18.4558 10.7186 18.4771C10.7275 18.4984 10.732 18.5212 10.732 18.5443V20.6685C10.7324 20.6916 10.7281 20.7146 10.7195 20.7361C10.7108 20.7576 10.6979 20.7771 10.6815 20.7935C10.6651 20.8099 10.6456 20.8228 10.6241 20.8315C10.6026 20.8401 10.5796 20.8444 10.5565 20.844H0.833984V28.2638H3.30923V23.3193Z" fill="white"/>
<path d="M11.6483 10.2526H9.09572L8.31328 8.36939H4.05895L3.34493 10.2526H0.833984L4.67181 0.732422H7.42076L11.6483 10.2526ZM6.08198 3.01132L4.70156 6.70931H7.61711L6.08198 3.01132Z" fill="white"/>
<path d="M20.9247 0.734863H23.0072V10.255H20.6272V4.30493L18.0597 7.27999H17.6878L15.1144 4.30791V10.258H12.7344V0.737838H14.8169L17.8693 4.26626L20.9247 0.734863Z" fill="white"/>
<path d="M29.0025 0.734863C32.4774 0.734863 34.2654 2.89773 34.2654 5.49495C34.2654 8.23201 32.5339 10.255 28.7378 10.255H24.8018V0.734863H29.0025ZM27.1759 8.50869H28.7229C31.1029 8.50869 31.8229 6.89026 31.8229 5.49495C31.8229 3.86165 30.9304 2.48122 28.6961 2.48122H27.1759V8.50869Z" fill="white"/>
<path d="M43.891 2.9934H38.9821L35.9922 0.000488281H46.8809V10.8922L43.891 7.89927V2.9934Z" fill="white"/>
<path d="M38.9806 7.90217V3.59131L35.9014 6.67347V10.9843H40.2122L43.2914 7.90217H38.9806Z" fill="white"/>
</svg>
