<svg width="82" height="31" viewBox="0 0 82 31" fill="none" xmlns="http://www.w3.org/2000/svg">
<path d="M11.8031 11.1886H9.01726L8.16331 9.13325H3.52018L2.74091 11.1886H0.000488281L4.18905 0.79834H7.18923L11.8031 11.1886ZM5.7281 3.2855L4.22152 7.32146H7.40353L5.7281 3.2855Z" fill="white"/>
<path d="M21.9276 0.801758H24.2005V11.192H21.6029V4.6981L18.8008 7.94504H18.3949L15.5863 4.70134V11.1952H12.9888V0.805005H15.2616L18.593 4.65588L21.9276 0.801758Z" fill="white"/>
<path d="M30.7429 0.801758C34.5353 0.801758 36.4867 3.16229 36.4867 5.99687C36.4867 8.98407 34.597 11.192 30.4539 11.192H26.1582V0.801758H30.7429ZM28.7493 9.28603H30.4377C33.0352 9.28603 33.821 7.51969 33.821 5.99687C33.821 4.2143 32.8469 2.70772 30.4085 2.70772H28.7493V9.28603Z" fill="white"/>
<path d="M46.9942 3.26643H41.6367L38.3735 0H50.2574V11.8871L46.9942 8.62065V3.26643Z" fill="white"/>
<path d="M41.6326 8.62377V3.91895L38.272 7.28278V11.9876H42.9768L46.3374 8.62377H41.6326Z" fill="white"/>
<path d="M32.98 20.0433H42.3734L32.98 28.1314V30.8556H46.4873V28.1541H37.0971L46.4873 20.066V17.3418H32.98V20.0433Z" fill="white"/>
<path d="M23.0311 22.7025L19.164 17.3418H15.8262L21.6674 25.4494V30.8556H24.3689V25.4494L30.2394 17.3418H26.9015L23.0311 22.7025Z" fill="white"/>
<path d="M63.7676 17.3418H50.2603V20.0465H63.7676V17.3418Z" fill="white"/>
<path d="M50.2603 22.7476V30.8552H63.7708V28.1537H52.965V25.449H63.7708V22.7476H50.2603Z" fill="white"/>
<path d="M2.7052 25.4494H7.68926L10.8128 30.8459H13.9331L10.8128 25.4494C11.1679 25.4499 11.5195 25.3803 11.8476 25.2447C12.1758 25.1092 12.4739 24.9102 12.7251 24.6593C12.9763 24.4084 13.1756 24.1105 13.3116 23.7825C13.4475 23.4546 13.5175 23.103 13.5175 22.748V20.0433C13.5175 19.6882 13.4475 19.3367 13.3116 19.0087C13.1756 18.6807 12.9763 18.3828 12.7251 18.1319C12.4739 17.881 12.1758 17.6821 11.8476 17.5465C11.5195 17.4109 11.1679 17.3414 10.8128 17.3418H0.000488281V20.0433H10.6213C10.6721 20.0433 10.7208 20.0634 10.7567 20.0994C10.7926 20.1353 10.8128 20.184 10.8128 20.2348V22.5564C10.8128 22.6072 10.7926 22.6559 10.7567 22.6919C10.7208 22.7278 10.6721 22.748 10.6213 22.748H0.000488281V30.8459H2.7052V25.4494Z" fill="white"/>
<path d="M78.6802 17.3452V26.7386L70.592 17.3452H67.8711V30.8525H70.5693V21.4591L78.6607 30.8525H81.3816V17.3452H78.6802Z" fill="white"/>
</svg>
