<svg width="104" height="26" viewBox="0 0 104 26" fill="none" xmlns="http://www.w3.org/2000/svg">
<path d="M29.7666 13.1775V13.1541C29.7526 12.5053 29.8699 11.8604 30.1113 11.2581C30.3527 10.6557 30.7134 10.1083 31.1716 9.6488C31.6298 9.18927 32.1761 8.82706 32.7778 8.58391C33.3795 8.34075 34.0241 8.22167 34.6729 8.2338C35.3617 8.20808 36.0484 8.32683 36.6885 8.58243C37.3287 8.83802 37.9083 9.22479 38.3901 9.71786L37.318 10.9585C36.9753 10.5948 36.5637 10.3028 36.1072 10.0995C35.6507 9.89618 35.1584 9.78555 34.6588 9.77404C32.8518 9.77404 31.5222 11.2675 31.5222 13.1307V13.1588C31.5222 15.0315 32.8377 16.5249 34.6588 16.5249C35.1733 16.5196 35.6812 16.4084 36.1508 16.1982C36.6203 15.9879 37.0416 15.6832 37.3882 15.303L38.4603 16.3891C37.9822 16.9382 37.3881 17.3742 36.721 17.6656C36.0539 17.9571 35.3303 18.0967 34.6027 18.0745C33.9605 18.0816 33.3234 17.9593 32.7295 17.7149C32.1355 17.4706 31.5968 17.1091 31.1456 16.6522C30.6943 16.1952 30.3396 15.6521 30.1027 15.0551C29.8658 14.4582 29.7515 13.8196 29.7666 13.1775Z" fill="white"/>
<path d="M41.3485 13.1773V13.1539C41.3843 11.8621 41.9217 10.635 42.8469 9.73262C43.772 8.83027 45.0121 8.32358 46.3044 8.31992C47.5967 8.31627 48.8396 8.81594 49.7698 9.71305C50.7 10.6102 51.2444 11.8342 51.2875 13.1258V13.1539C51.251 14.4456 50.713 15.6724 49.7875 16.5743C48.8619 17.4762 47.6216 17.9823 46.3293 17.9853C45.0371 17.9884 43.7944 17.4881 42.8646 16.5906C41.9349 15.6931 41.3911 14.4689 41.3485 13.1773ZM49.5366 13.1773V13.1539C49.5509 12.7185 49.4783 12.2846 49.323 11.8775C49.1677 11.4705 48.9328 11.0985 48.632 10.7834C48.3312 10.4682 47.9706 10.2162 47.5713 10.042C47.172 9.86788 46.7419 9.77509 46.3063 9.7691C45.8726 9.76995 45.4436 9.85849 45.0451 10.0294C44.6465 10.2003 44.2866 10.45 43.9871 10.7636C43.6875 11.0772 43.4544 11.4481 43.3019 11.854C43.1493 12.26 43.0805 12.6926 43.0994 13.1258V13.1539C43.0837 13.5891 43.1557 14.0231 43.3111 14.4299C43.4664 14.8368 43.702 15.2083 44.0038 15.5223C44.3055 15.8363 44.6674 16.0864 45.0677 16.2578C45.4681 16.4292 45.8989 16.5183 46.3344 16.5199C46.7672 16.521 47.1957 16.4342 47.5939 16.2648C47.9922 16.0954 48.3519 15.8469 48.6513 15.5344C48.9507 15.2219 49.1836 14.8518 49.3357 14.4466C49.4879 14.0415 49.5562 13.6096 49.5366 13.1773Z" fill="white"/>
<path d="M55.1443 8.39702H59.3811C60.3827 8.3396 61.367 8.67557 62.1245 9.33333C62.3849 9.60888 62.5883 9.93306 62.7233 10.2873C62.8583 10.6416 62.922 11.019 62.911 11.3979V11.426C62.9322 12.0943 62.7178 12.7489 62.3054 13.2752C61.8929 13.8015 61.3085 14.1661 60.6545 14.3052L63.2247 17.9053H61.2397L58.8989 14.5907H56.825V17.9053H55.1583L55.1443 8.39702ZM59.2547 13.1114C60.4532 13.1114 61.2116 12.484 61.2116 11.5196V11.4962C61.2116 10.4756 60.4813 9.91853 59.2453 9.91853H56.825V13.1114H59.2547Z" fill="white"/>
<path d="M66.1517 16.5195L67.1583 15.3257C67.9629 16.1093 69.0362 16.5563 70.1591 16.5757C71.1938 16.5757 71.8445 16.1075 71.8445 15.3772C71.8445 14.6984 71.4653 14.3285 69.7004 13.9212C67.6732 13.4531 66.5356 12.8351 66.5356 11.0842V11.0561C66.5356 9.4269 67.8933 8.29864 69.7799 8.29864C71.0243 8.2676 72.2397 8.67714 73.2115 9.45499L72.3127 10.719C71.583 10.1195 70.6769 9.77575 69.7331 9.74057C68.7547 9.74057 68.1835 10.2462 68.1835 10.8688V10.8969C68.1835 11.6319 68.6189 11.955 70.4541 12.3903C72.4625 12.8585 73.4971 13.5982 73.4971 15.1759V15.204C73.4971 16.983 72.0927 18.041 70.0983 18.041C68.6395 18.0414 67.2327 17.499 66.1517 16.5195Z" fill="white"/>
<path d="M80.4762 8.33188H82.0258L86.2064 17.9057H84.4461L83.4817 15.6117H78.9874L78.009 17.9057H76.3002L80.4762 8.33188ZM82.8684 14.1277L81.2252 10.3262L79.596 14.1277H82.8684Z" fill="white"/>
<path d="M89.7649 8.39747H91.4315V17.9058H89.7649V8.39747Z" fill="white"/>
<path d="M95.8037 8.39702H100.041C101.042 8.3396 102.027 8.67557 102.784 9.33333C103.306 9.88636 103.589 10.6234 103.57 11.3839V11.426C103.591 12.0963 103.375 12.7524 102.959 13.279C102.544 13.8056 101.957 14.1689 101.3 14.3052L103.865 17.9053H101.88L99.5396 14.5907H97.447V17.9053H95.7757L95.8037 8.39702ZM99.9188 13.1114C101.113 13.1114 101.876 12.484 101.876 11.5196V11.4962C101.876 10.4756 101.141 9.91853 99.9048 9.91853H97.4751V13.1114H99.9188Z" fill="white"/>
<path d="M13.9746 0.892578C13.9746 0.892578 15.997 4.99832 15.6272 6.71178C15.6272 6.71178 20.9033 8.41587 21.4885 11.2295C21.4885 11.2295 24.3771 7.42806 13.9746 0.892578Z" fill="white"/>
<path d="M11.9431 7.05353C12.4028 8.16238 12.754 9.31319 12.9917 10.4898L10.0096 9.36155C10.2858 7.53573 8.51147 4.75956 8.51147 4.75956L11.9431 7.05353Z" fill="white"/>
<path d="M6.60712 9.88079C6.98159 10.8408 7.28668 11.8265 7.52002 12.8302L4.80471 12.156C5.0856 10.3302 3.36278 8.12052 3.36278 8.12052L6.60712 9.88079Z" fill="white"/>
<path d="M12.5142 5.48995C12.5142 5.48995 24.6114 13.987 25.4073 17.2828C26.0112 19.7641 24.2603 22.0534 24.2603 22.0534C24.2603 22.0534 23.324 15.5834 0.145508 25.4101C1.33003 24.1325 2.23365 22.621 2.7981 20.9728C3.36255 19.3246 3.5753 17.5764 3.42261 15.8409C3.29078 14.3991 2.90568 12.9918 2.28499 11.6837L7.71562 14.5675C7.71562 14.6518 7.71562 14.7361 7.73902 14.825C7.94378 16.9477 7.78546 19.0897 7.27087 21.1592C8.42475 18.741 8.90201 16.0554 8.65193 13.3878C8.51352 11.7582 8.10865 10.1625 7.45345 8.66406L13.2586 12.5357C13.282 12.7277 13.2961 12.9196 13.3148 13.1162C13.545 15.4571 13.3322 17.8204 12.6875 20.0824C13.905 17.8371 14.5281 15.3177 14.4978 12.7637C14.4675 10.2096 13.7847 7.70578 12.5142 5.48995Z" fill="white"/>
</svg>
