<svg width="81" height="32" viewBox="0 0 81 32" fill="none" xmlns="http://www.w3.org/2000/svg">
<path d="M5.68112 30.9373V9.83529H0.145298V30.9165H5.6812L5.68112 30.9373ZM42.3379 31.1456V25.9795C41.5292 25.9795 40.845 25.9378 40.3474 25.8545C39.7669 25.7712 39.3315 25.5628 39.0412 25.2712C38.7509 24.9796 38.5643 24.5629 38.4607 24.0005C38.3778 23.4797 38.3363 22.7923 38.3363 21.9591V14.6056H42.3379V9.83529H38.3362V1.62779H32.8003V22.0216C32.8003 23.7505 32.9455 25.2087 33.2357 26.3753C33.5261 27.521 34.0237 28.4584 34.7079 29.1667C35.392 29.8749 36.3043 30.3748 37.4032 30.6874C38.5228 30.9998 39.9327 31.1456 41.6121 31.1456H42.3379ZM74.0185 30.9373V0.00292969H68.4827V30.9373H74.0185ZM27.4721 11.9184C25.9378 10.2519 23.7815 9.41866 21.0447 9.41866C19.7178 9.41866 18.4944 9.68948 17.4163 10.231C16.3175 10.7727 15.4052 11.5226 14.6588 12.4808L14.3685 12.8766V9.83529H8.91566V30.9165H14.41V19.6884V20.0843C14.4722 18.1053 14.9491 16.6471 15.8613 15.7097C16.8358 14.7098 18.0176 14.2099 19.3653 14.2099C20.9618 14.2099 22.185 14.7098 22.9937 15.668C23.7815 16.6263 24.1962 17.9803 24.1962 19.7093V30.9165H29.7734V18.9593C29.7942 15.9597 29.0064 13.5849 27.4721 11.9184ZM65.6214 20.355C65.6214 18.8344 65.3519 17.4178 64.8336 16.0847C64.2945 14.7722 63.548 13.6057 62.6151 12.6058C61.6613 11.6059 60.521 10.8352 59.1941 10.2728C57.8671 9.71027 56.395 9.43944 54.7986 9.43944C53.285 9.43944 51.8544 9.73113 50.5275 10.2936C49.2005 10.8769 48.0394 11.6476 47.065 12.6266C46.0905 13.6057 45.3026 14.7723 44.7428 16.1055C44.1623 17.4387 43.8927 18.876 43.8927 20.3967C43.8927 21.9174 44.1624 23.3548 44.7014 24.6879C45.2404 26.0211 46.0076 27.1877 46.9613 28.1668C47.9151 29.1458 49.0969 29.9374 50.4652 30.4998C51.8337 31.0831 53.3472 31.3748 54.9645 31.3748C59.6502 31.3748 62.5528 29.2292 64.2945 27.2293L60.3136 24.1879C59.4843 25.1879 57.4939 26.542 55.0059 26.542C53.4509 26.542 52.1654 26.1878 51.1909 25.4587C50.2164 24.7504 49.553 23.7505 49.2005 22.5215L49.1383 22.334H65.6214V20.355ZM49.1798 18.4178C49.1798 16.8762 50.9421 14.189 54.7364 14.1682C58.5305 14.1682 60.3136 16.8554 60.3136 18.3969L49.1798 18.4178ZM80.3215 28.2709C80.2179 28.0209 80.0728 27.8126 79.8861 27.6252C79.6995 27.4376 79.4922 27.2918 79.2434 27.1877C78.9946 27.0835 78.7251 27.0211 78.4555 27.0211C78.1653 27.0211 77.9165 27.0835 77.6677 27.1877C77.4189 27.2918 77.2115 27.4376 77.025 27.6252C76.8384 27.8126 76.6932 28.0209 76.5895 28.2709C76.4859 28.5209 76.4237 28.7917 76.4237 29.0625C76.4237 29.3541 76.4859 29.6041 76.5895 29.8541C76.6932 30.104 76.8384 30.3124 77.025 30.4998C77.2115 30.6874 77.4189 30.8332 77.6677 30.9373C77.9164 31.0415 78.1861 31.1039 78.4555 31.1039C78.7458 31.1039 78.9946 31.0415 79.2434 30.9373C79.4922 30.8332 79.6995 30.6874 79.8862 30.4998C80.0728 30.3124 80.2179 30.1041 80.3216 29.8541C80.4254 29.6042 80.4874 29.3333 80.4874 29.0624C80.4874 28.7915 80.4251 28.5209 80.3215 28.2709ZM79.9899 29.7291C79.907 29.9374 79.7825 30.1249 79.6373 30.2707C79.4922 30.4165 79.3056 30.5415 79.0983 30.6249C78.891 30.7081 78.6836 30.7498 78.4348 30.7498C78.2067 30.7498 77.9787 30.7081 77.7714 30.6249C77.5641 30.5416 77.3774 30.4165 77.2323 30.2707C77.0872 30.1249 76.9627 29.9374 76.8798 29.7291C76.7969 29.5208 76.7554 29.3125 76.7554 29.0625C76.7554 28.8333 76.7969 28.6042 76.8798 28.3959C76.9627 28.1876 77.0872 28.0001 77.2323 27.8543C77.3774 27.7085 77.5641 27.5835 77.7714 27.5001C77.9787 27.4168 78.186 27.3751 78.4348 27.3751C78.6629 27.3751 78.891 27.4169 79.0983 27.5002C79.3056 27.5835 79.4922 27.7085 79.6373 27.8544C79.7825 28.0001 79.907 28.1875 79.9899 28.3959C80.0728 28.6043 80.1142 28.8125 80.1142 29.0625C80.1142 29.3125 80.0728 29.5208 79.9899 29.7291ZM78.8288 29.25C78.9946 29.2292 79.119 29.1667 79.2227 29.0625C79.3263 28.9584 79.3885 28.8125 79.3885 28.6042C79.3885 28.3751 79.3263 28.2084 79.1812 28.0835C79.0569 27.9584 78.8288 27.8959 78.5592 27.8959H77.647V30.2499H78.0824V29.2916H78.3933L78.9739 30.2499H79.43L78.8288 29.25ZM78.6007 28.8958H78.0822V28.2293H78.6006C78.6628 28.2293 78.725 28.25 78.7872 28.2709C78.8494 28.2918 78.8909 28.3334 78.9116 28.3751C78.9531 28.4167 78.9531 28.4792 78.9531 28.5625C78.9531 28.6458 78.9323 28.7084 78.9116 28.75C78.8701 28.7917 78.8287 28.8333 78.7872 28.8542C78.725 28.875 78.6629 28.8958 78.6007 28.8958Z" fill="white"/>
<path d="M0 0.440305H5.82606V6.29385H0V0.440305Z" fill="white"/>
</svg>
