<svg width="58" height="45" viewBox="0 0 58 45" fill="none" xmlns="http://www.w3.org/2000/svg">
<path fill-rule="evenodd" clip-rule="evenodd" d="M24.548 33.6634L24.5492 44.2972H27.5743V33.6637H24.548V33.6634ZM0.746094 33.6492V44.2972H3.79868V36.2118L6.16354 36.2126C6.94686 36.2126 7.50466 36.4061 7.88216 36.8058C8.36097 37.312 8.55616 38.1281 8.55616 39.6215V44.2972H11.5137V38.4142C11.5137 34.2154 8.81717 33.6489 6.17899 33.6489H0.746094L0.746094 33.6492ZM29.4197 33.6637V44.2972H34.3274C36.9421 44.2972 37.7953 43.8654 38.7183 42.8979C39.3708 42.2184 39.7924 40.727 39.7924 39.0973C39.7924 37.6029 39.4355 36.2692 38.813 35.4388C37.692 33.954 36.077 33.6637 33.6663 33.6637H29.4197ZM32.4211 35.9788H33.7221C35.6093 35.9788 36.8302 36.8203 36.8302 39.003C36.8302 41.1864 35.6093 42.0275 33.7221 42.0275H32.4211V35.9791V35.9788ZM20.1855 33.6637L17.6604 42.0914L15.2406 33.6643L11.9745 33.6637L15.4301 44.2972H19.7912L23.2739 33.6637H20.1858H20.1855ZM41.2002 44.2972H44.2265V33.6645L41.1996 33.6637L41.2002 44.2972ZM49.6823 33.6674L45.4571 44.2935H48.4407L49.1093 42.4153H54.1092L54.7417 44.2935H57.9814L53.7239 33.6665L49.6823 33.6677V33.6674ZM51.6464 35.6062L53.4793 40.5842H49.7558L51.6464 35.6062Z" fill="white"/>
<path fill-rule="evenodd" clip-rule="evenodd" d="M20.5484 8.755V6.20038C20.8012 6.18258 21.0544 6.1697 21.3077 6.16175C28.347 5.94216 32.9654 12.1652 32.9654 12.1652C32.9654 12.1652 27.9776 19.0414 22.6294 19.0414C21.8589 19.0414 21.1698 18.9184 20.5484 18.7113V10.9648C23.2888 11.2931 23.8397 12.4948 25.4876 15.2207L29.1518 12.1542C29.1518 12.1542 26.4773 8.67205 21.9683 8.67205C21.4774 8.67205 21.0086 8.70614 20.5484 8.755ZM20.5484 0.316202V4.13208C20.8009 4.1122 21.0539 4.09629 21.3077 4.0872C31.0971 3.75995 37.4747 12.0559 37.4747 12.0559C37.4747 12.0559 30.1489 20.8972 22.5175 20.8972C21.8183 20.8972 21.1638 20.8333 20.5484 20.725V23.0837C21.0745 23.1501 21.6194 23.1893 22.1883 23.1893C29.2903 23.1893 34.4262 19.5896 39.3997 15.3289C40.2237 15.9842 43.5997 17.5784 44.2937 18.277C39.5648 22.2062 28.5448 25.373 22.2974 25.373C21.7133 25.3708 21.1296 25.3406 20.5484 25.2826V28.5977H47.5415V0.315918H20.5487L20.5484 0.316202ZM20.5484 18.7113V20.7253C13.9796 19.5626 12.1565 12.7856 12.1565 12.7856C12.1565 12.7856 15.3104 9.31717 20.5484 8.755V10.9648C20.5444 10.9648 20.5416 10.9636 20.5381 10.9636C17.7895 10.6358 15.6419 13.185 15.6419 13.185C15.6419 13.185 16.845 17.4762 20.5484 18.7113ZM8.88186 12.4916C8.88186 12.4916 12.7747 6.78954 20.5484 6.2001V4.13208C11.9385 4.81782 4.48242 12.0556 4.48242 12.0556C4.48242 12.0556 8.70499 24.1733 20.5487 25.2826V23.0839C11.8575 21.9982 8.88186 12.4916 8.88186 12.4916Z" fill="white"/>
</svg>
