<svg width="101" height="26" viewBox="0 0 101 26" fill="none" xmlns="http://www.w3.org/2000/svg">
<path fill-rule="evenodd" clip-rule="evenodd" d="M7.99941 0.259277L16.7657 12.8069L16.7572 12.5951V0.259277H24.1564V25.5527H17.2942L8.03884 12.2346V25.5527H0.639648V0.259277H7.99941ZM100.802 0.259277V6.92198H94.0736V25.5516H86.2162V6.92198H79.4905V0.260331H100.802V0.259277ZM60.7432 0.259277L64.9009 6.75125L69.3315 0.259277H77.4542L69.193 12.7827L77.5949 25.5516H68.9831L64.788 19.1229L60.659 25.5516H52.2475L60.4896 13.0145L52.1271 0.260331H60.7432V0.259277ZM49.6763 0.259277L39.5642 19.1387H49.4632V25.5516H28.0701L38 6.63216H28.6178V0.259277H49.6774H49.6763Z" fill="white"/>
</svg>
