<svg xmlns="http://www.w3.org/2000/svg" viewBox="0 0 56 56">
<path d="M14.3,50c-0.2,0-0.3,0-0.4-0.1c-0.2-0.2-0.3-0.5-0.3-0.7l2.5-15L5.3,23.5C5.1,23.3,5,23,5.1,22.8c0.1-0.3,0.3-0.5,0.6-0.5l14.9-2.2l6.7-13.6C27.5,6.2,27.7,6,28,6l0,0c0.3,0,0.5,0.2,0.7,0.4l6.7,13.6l14.9,2.2c0.3,0,0.5,0.2,0.6,0.5c0.1,0.3,0,0.6-0.2,0.8L39.9,34.1l2.6,15c0,0.3-0.1,0.6-0.3,0.7c-0.2,0.2-0.5,0.2-0.8,0.1L28,42.8l-13.3,7.1C14.5,50,14.4,50,14.3,50z M7.4,23.5l10,9.8c0.2,0.2,0.3,0.4,0.2,0.7l-2.4,13.9l12.4-6.5c0.2-0.1,0.5-0.1,0.7,0l12.4,6.5L38.3,34c0-0.2,0-0.5,0.2-0.7l10-9.8l-13.8-2c-0.2,0-0.5-0.2-0.6-0.4L28,8.5l-6.2,12.6c-0.1,0.2-0.3,0.4-0.6,0.4L7.4,23.5z"/>
</svg>
