<svgxmlns="http://www.w3.org/2000/svg" viewBox="0 0 56 56">
<path d="M16.3,34.6c-0.2,0-0.4-0.1-0.6-0.3l-8-10v9.5c0,0.4-0.3,0.8-0.8,0.8s-0.8-0.3-0.8-0.8V22.2c0-0.3,0.2-0.6,0.5-0.7c0.3-0.1,0.6,0,0.8,0.2l8,10v-9.5c0-0.4,0.3-0.8,0.8-0.8s0.8,0.3,0.8,0.8v11.7c0,0.3-0.2,0.6-0.5,0.7C16.5,34.6,16.4,34.6,16.3,34.6z"/>
<path d="M30.3,28.8h-7c-0.4,0-0.8-0.3-0.8-0.8s0.3-0.8,0.8-0.8h7c0.4,0,0.8,0.3,0.8,0.8S30.7,28.8,30.3,28.8z"/>
<path d="M31.5,34.6h-8.2c-0.4,0-0.8-0.3-0.8-0.8V22.2c0-0.4,0.3-0.8,0.8-0.8h8.2c0.4,0,0.8,0.3,0.8,0.8s-0.3,0.8-0.8,0.8h-7.4v10.2h7.4c0.4,0,0.8,0.3,0.8,0.8S31.9,34.6,31.5,34.6z"/>
<path d="M47.8,34.6h-0.5c-0.3,0-0.5-0.1-0.6-0.4l-3.5-5.9l-3.5,5.9c-0.1,0.2-0.4,0.4-0.6,0.4h-0.5c-0.4,0-0.7-0.3-0.7-0.7l-1.2-11.7c0-0.4,0.3-0.8,0.7-0.8c0.4,0,0.8,0.3,0.8,0.7l1,10.1l3.4-5.8c0.1-0.2,0.4-0.4,0.6-0.4l0,0c0.3,0,0.5,0.1,0.6,0.4l3.4,5.8l1-10.1c0-0.4,0.4-0.7,0.8-0.7c0.4,0,0.7,0.4,0.7,0.8l-1.2,11.7C48.5,34.3,48.2,34.6,47.8,34.6z"/>
<path d="M44.6,15.9c-0.2,0-0.4-0.1-0.6-0.3c-0.6-0.8-1.1-1.4-1.7-1.9c-7.9-7.9-20.7-7.9-28.6,0c-0.5,0.5-1.1,1.2-1.7,1.9c-0.3,0.3-0.7,0.4-1.1,0.1c-0.3-0.3-0.4-0.7-0.1-1.1c0.6-0.8,1.2-1.5,1.8-2.1c8.5-8.5,22.3-8.5,30.8,0c0.6,0.6,1.2,1.3,1.8,2.1c0.3,0.3,0.2,0.8-0.1,1.1C44.9,15.9,44.8,15.9,44.6,15.9z"/>
<path d="M28,49.7c-5.6,0-11.1-2.1-15.4-6.4c-0.6-0.6-1.2-1.3-1.8-2.1c-0.3-0.3-0.2-0.8,0.1-1.1c0.3-0.3,0.8-0.2,1.1,0.1c0.6,0.8,1.1,1.4,1.7,1.9c7.9,7.9,20.7,7.9,28.6,0c0.5-0.5,1.1-1.2,1.7-1.9c0.3-0.3,0.7-0.4,1.1-0.1c0.3,0.3,0.4,0.7,0.1,1.1c-0.6,0.8-1.2,1.5-1.8,2.1C39.1,47.6,33.6,49.7,28,49.7z"/>
</svg>
