<svg xmlns="http://www.w3.org/2000/svg" viewBox="0 0 56 56">
<path d="M21,35.8c-0.2,0-0.4-0.1-0.5-0.2c-0.3-0.3-0.3-0.8,0-1.1l14-14c0.3-0.3,0.8-0.3,1.1,0s0.3,0.8,0,1.1l-14,14C21.4,35.7,21.2,35.8,21,35.8z"/>
<path d="M21.6,22.9c-0.7,0-1.3-0.6-1.3-1.3c0-0.4,0.1-0.7,0.4-0.9c0.3-0.3,0.6-0.4,0.9-0.4c0.7,0,1.3,0.6,1.3,1.3C22.9,22.3,22.3,22.9,21.6,22.9z M21.6,21.4c-0.1,0-0.2,0.1-0.2,0.2c0,0.1,0.2,0.2,0.3,0.1c0,0,0.1-0.1,0-0.1C21.8,21.5,21.7,21.4,21.6,21.4z"/>
<path d="M34.4,36c-0.9,0-1.6-0.7-1.6-1.6c0-0.4,0.2-0.8,0.5-1.1c0.3-0.3,0.7-0.5,1.1-0.5c0.9,0,1.6,0.7,1.6,1.6S35.3,36,34.4,36z M34.4,34c-0.2,0-0.4,0.2-0.4,0.4c0,0.3,0.5,0.5,0.7,0.3c0.1-0.1,0.1-0.2,0.1-0.3C34.8,34.2,34.6,34,34.4,34z"/>
<path d="M28,49.8C16,49.8,6.3,40,6.3,28S16,6.3,28,6.3S49.8,16,49.8,28S40,49.8,28,49.8z M28,7.8C16.8,7.8,7.8,16.8,7.8,28S16.8,48.3,28,48.3S48.3,39.2,48.3,28S39.2,7.8,28,7.8z"/>
</svg>
