<?xml version="1.0" encoding="utf-8"?>
<!-- Generator: Adobe Illustrator 19.2.1, SVG Export Plug-In . SVG Version: 6.00 Build 0)  -->
<svg version="1.1" id="Слой_1" xmlns="http://www.w3.org/2000/svg" xmlns:xlink="http://www.w3.org/1999/xlink" x="0px" y="0px"
	 viewBox="0 0 56 56" style="enable-background:new 0 0 56 56;" xml:space="preserve">
<style type="text/css">
	.st0{fill:#FFFFFF;}
</style>
<g>
	<path d="M32.2,56h-8.4c-1.2,0-2.2-1-2.2-2.2V33.7c0-1.2,1-2.2,2.2-2.2h8.4c1.2,0,2.2,1,2.2,2.2v20.1
		C34.4,55,33.4,56,32.2,56z M23.8,32.7c-0.6,0-1,0.5-1,1.1v20.1c0,0.6,0.5,1.1,1,1.1h8.4c0.6,0,1-0.5,1-1.1V33.7
		c0-0.6-0.5-1.1-1-1.1H23.8z"/>
	<path d="M28.4,44.7c0-0.2-0.2-0.4-0.4-0.4s-0.4,0.2-0.4,0.4H28.4z M27.6,46.8c0,0.2,0.2,0.4,0.4,0.4s0.4-0.2,0.4-0.4
		H27.6z M29.4,45.3c-0.2-0.1-0.4-0.1-0.5,0.1c-0.1,0.2-0.1,0.4,0.1,0.5L29.4,45.3z M27,45.9c0.2-0.1,0.2-0.3,0.1-0.5
		c-0.1-0.2-0.3-0.2-0.5-0.1L27,45.9z M29.9,47.6c0,1.1-0.9,1.9-1.9,1.9v0.8c1.5,0,2.7-1.2,2.7-2.7H29.9z M28,49.5
		c-1.1,0-1.9-0.9-1.9-1.9h-0.8c0,1.5,1.2,2.7,2.7,2.7V49.5z M27.6,44.7v2.1h0.8v-2.1H27.6z M29,45.9c0.5,0.3,0.9,1,0.9,1.6h0.8
		c0-1-0.5-1.8-1.3-2.3L29,45.9z M26.1,47.6c0-0.7,0.4-1.3,0.9-1.6l-0.4-0.6c-0.8,0.5-1.3,1.3-1.3,2.3H26.1z"/>
</g>
</svg>
