<?xml version="1.0" encoding="utf-8"?>
<!-- Generator: Adobe Illustrator 19.2.1, SVG Export Plug-In . SVG Version: 6.00 Build 0)  -->
<svg version="1.1" id="Слой_1" xmlns="http://www.w3.org/2000/svg" xmlns:xlink="http://www.w3.org/1999/xlink" x="0px" y="0px"
	 viewBox="0 0 56 56" style="enable-background:new 0 0 56 56;" xml:space="preserve">
<style type="text/css">
	.st0{fill:#FFFFFF;}
</style>
<g>
	<path d="M35.8,56H20.2c-1.5,0-2.7-1.2-2.7-2.7v-31c0-1.5,1.2-2.7,2.7-2.7h15.6c1.5,0,2.7,1.2,2.7,2.7v31
		C38.5,54.8,37.3,56,35.8,56z M35.8,54.6c0.7,0,1.3-0.6,1.3-1.3v-31c0-0.7-0.6-1.3-1.3-1.3H20.2c-0.7,0-1.3,0.6-1.3,1.3v31
		c0,0.7,0.6,1.3,1.3,1.3H35.8z"/>
	<path d="M28.6,40.6c0-0.2-0.2-0.4-0.4-0.4c-0.2,0-0.4,0.2-0.4,0.4H28.6z M27.8,42.7c0,0.2,0.2,0.4,0.4,0.4
		c0.2,0,0.4-0.2,0.4-0.4H27.8z M29.7,41.2c-0.2-0.1-0.4-0.1-0.5,0.1c-0.1,0.2-0.1,0.4,0.1,0.5L29.7,41.2z M27.2,41.8
		c0.2-0.1,0.2-0.3,0.1-0.5c-0.1-0.2-0.3-0.2-0.5-0.1L27.2,41.8z M30.2,43.4c0,1.1-0.9,1.9-1.9,1.9v0.8c1.5,0,2.7-1.2,2.7-2.7H30.2z
		 M28.2,45.4c-1.1,0-1.9-0.9-1.9-1.9h-0.8c0,1.5,1.2,2.7,2.7,2.7V45.4z M27.8,40.6v2.1h0.8v-2.1H27.8z M29.3,41.8
		c0.5,0.3,0.9,1,0.9,1.6h0.8c0-1-0.5-1.8-1.3-2.3L29.3,41.8z M26.3,43.4c0-0.7,0.4-1.3,0.9-1.6l-0.4-0.6c-0.8,0.5-1.3,1.3-1.3,2.3
		H26.3z"/>
</g>
</svg>
