<?xml version="1.0" encoding="utf-8"?>
<!-- Generator: Adobe Illustrator 19.2.1, SVG Export Plug-In . SVG Version: 6.00 Build 0)  -->
<svg version="1.1" id="Слой_1" xmlns="http://www.w3.org/2000/svg" xmlns:xlink="http://www.w3.org/1999/xlink" x="0px" y="0px"
	 viewBox="0 0 56 57" style="enable-background:new 0 0 56 57;" xml:space="preserve">
<style type="text/css">
	.st0{fill:#FFFFFF;}
</style>
<g>
	<path d="M37,56.3H19c-1.3,0-2.6-0.5-3.5-1.5c-0.9-0.9-1.5-2.2-1.5-3.5V25.7c0-1.3,0.5-2.6,1.5-3.5
		c0.9-0.9,2.2-1.5,3.5-1.5h18c1.3,0,2.6,0.5,3.5,1.5c0.9,0.9,1.5,2.2,1.5,3.5v25.6c0,1.3-0.5,2.6-1.5,3.5
		C39.6,55.7,38.3,56.3,37,56.3z M19,22.1c-1,0-1.8,0.4-2.5,1c-0.7,0.7-1,1.6-1,2.5v25.6c0,1,0.4,1.8,1,2.5c0.7,0.7,1.6,1,2.5,1h18
		c0.9,0,1.9-0.4,2.5-1c0.7-0.7,1-1.6,1-2.5V25.7c0-1-0.4-1.8-1-2.5c-0.7-0.7-1.6-1-2.5-1H19z"/>
	<path d="M35.1,43H20.9c-0.7,0-1.2-0.5-1.2-1.2V27.6c0-0.7,0.5-1.2,1.2-1.2h14.2c0.7,0,1.2,0.5,1.2,1.2v14.2
		C36.3,42.5,35.8,43,35.1,43z M21.1,41.6h13.7V27.8H21.1V41.6z M35.1,27.8L35.1,27.8L35.1,27.8z"/>
	<path d="M35.6,35.4H20.4c-0.4,0-0.7-0.3-0.7-0.7S20,34,20.4,34h15.2c0.4,0,0.7,0.3,0.7,0.7S36,35.4,35.6,35.4z"/>
	<path d="M28,50.8c-0.1,0-0.2,0-0.4-0.1c-0.4-0.1-0.6-0.5-0.6-0.9c0-0.2,0.1-0.5,0.3-0.7c0.2-0.2,0.4-0.3,0.7-0.3
		c0,0,0,0,0,0c0.4,0,0.7,0.2,0.9,0.6c0.2,0.3,0.1,0.8-0.2,1C28.5,50.7,28.2,50.8,28,50.8z M28,49.4c-0.1,0-0.2,0-0.3,0.1
		c-0.1,0.1-0.2,0.3-0.1,0.5c0.1,0.2,0.2,0.3,0.4,0.3c0,0,0,0,0,0c0.1,0,0.2-0.1,0.3-0.1c0.1-0.1,0.1-0.2,0.1-0.3
		c0-0.2-0.1-0.4-0.3-0.4C28.1,49.4,28,49.4,28,49.4l0,0.2L28,49.4z"/>
</g>
</svg>
